# xmcd
#
# Track frame offsets:
#	150
#	11421
#	26046
#	42384
#
# Disc length: 660 seconds
#
# Revision: 0
# Processed by: cddbd v1.5.2PL0 Copyright (c) Steve Scherf et al.
# Submitted via: audiograbber 1.83.01
#
DISCID=28029204
DTITLE=Smokestack Lightnin - Unknown Stunman
DYEAR=2007
DGENRE=Country
TTITLE0=Unknown Stunman
TTITLE1=Shame
TTITLE2=Take My Hand
TTITLE3=Real Gone Daddy
EXTD=
EXTT0=
EXTT1=
EXTT2=
EXTT3=
PLAYORDER=
